<svg xmlns="http://www.w3.org/2000/svg" xmlns:xlink="http://www.w3.org/1999/xlink" width="68.775" height="66.775" viewBox="0 0 68.775 66.775">
  <defs>
    <filter id="Ellipse_13" x="9.018" y="9.4" width="50.74" height="50.74" filterUnits="userSpaceOnUse">
      <feOffset dy="3" input="SourceAlpha"/>
      <feGaussianBlur stdDeviation="7" result="blur"/>
      <feFlood flood-opacity="0.729"/>
      <feComposite operator="in" in2="blur"/>
      <feComposite in="SourceGraphic"/>
    </filter>
    <filter id="Path_31" x="0" y="0" width="68.775" height="66.775" filterUnits="userSpaceOnUse">
      <feOffset dy="3" input="SourceAlpha"/>
      <feGaussianBlur stdDeviation="7" result="blur-2"/>
      <feFlood flood-opacity="0.729"/>
      <feComposite operator="in" in2="blur-2"/>
      <feComposite in="SourceGraphic"/>
    </filter>
  </defs>
  <g id="Group_199" data-name="Group 199" transform="translate(18.269 15.269)">
    <g transform="matrix(1, 0, 0, 1, -18.27, -15.27)" filter="url(#Ellipse_13)">
      <circle id="Ellipse_13-2" data-name="Ellipse 13" cx="4.37" cy="4.37" r="4.37" transform="translate(30.02 27.4)" fill="#2499bc"/>
    </g>
    <g transform="matrix(1, 0, 0, 1, -18.27, -15.27)" filter="url(#Path_31)">
      <path id="Path_31-2" data-name="Path 31" d="M13.371,4l-2.45,2.753H6.678A2.715,2.715,0,0,0,4,9.506V26.023a2.715,2.715,0,0,0,2.678,2.753H28.1a2.715,2.715,0,0,0,2.678-2.753V9.506A2.715,2.715,0,0,0,28.1,6.753H23.854L21.4,4Zm4.016,20.646a6.792,6.792,0,0,1-6.694-6.882,6.792,6.792,0,0,1,6.694-6.882,6.792,6.792,0,0,1,6.694,6.882A6.792,6.792,0,0,1,17.388,24.646Z" transform="translate(17 14)" fill="#2499bc"/>
    </g>
  </g>
</svg>
