<svg xmlns="http://www.w3.org/2000/svg" width="46.875" height="46.875" viewBox="0 0 46.875 46.875">
  <path id="brankic1979_cog" data-name="brankic1979 cog" d="M48.741,35.753H46.258a17.7,17.7,0,0,1-1.721,4.131l2.3,2.293a3.761,3.761,0,0,1,0,5.318L45.5,48.824a3.76,3.76,0,0,1-5.317,0l-2.31-2.308a17.737,17.737,0,0,1-4.114,1.693v2.407A3.758,3.758,0,0,1,30,54.375H28.124a3.76,3.76,0,0,1-3.761-3.759V48.209a17.861,17.861,0,0,1-4.114-1.693l-2.308,2.308a3.759,3.759,0,0,1-5.316,0l-1.331-1.329a3.761,3.761,0,0,1,0-5.318l2.3-2.293a17.762,17.762,0,0,1-1.723-4.131H9.385a3.757,3.757,0,0,1-3.759-3.758V30.114a3.758,3.758,0,0,1,3.759-3.759h2.452a17.641,17.641,0,0,1,1.663-4.1l-2.207-2.2a3.761,3.761,0,0,1,0-5.318L12.622,13.4a3.759,3.759,0,0,1,5.316,0L20.1,15.567a17.664,17.664,0,0,1,4.26-1.781V11.259A3.763,3.763,0,0,1,28.123,7.5H30a3.758,3.758,0,0,1,3.759,3.759v2.526a17.706,17.706,0,0,1,4.26,1.783l2.162-2.162a3.76,3.76,0,0,1,5.317,0l1.329,1.328a3.761,3.761,0,0,1,0,5.318l-2.205,2.2a17.714,17.714,0,0,1,1.665,4.1h2.453A3.76,3.76,0,0,1,52.5,30.117V32a3.76,3.76,0,0,1-3.761,3.756ZM29.063,20.775A10.339,10.339,0,1,0,39.4,31.114,10.34,10.34,0,0,0,29.063,20.775Zm0,14.919a4.7,4.7,0,1,1,4.7-4.7,4.7,4.7,0,0,1-4.7,4.7Z" transform="translate(-5.626 -7.5)" fill="#fceef7"/>
</svg>
