<svg id="GoogleMaterial_ic_perm_media_48px" data-name="GoogleMaterial ic perm media 48px" xmlns="http://www.w3.org/2000/svg" width="29.871" height="29.871" viewBox="0 0 29.871 29.871">
  <path id="Path_5" data-name="Path 5" d="M0,0H29.871V29.871H0Z" fill="none"/>
  <path id="Path_6" data-name="Path 6" d="M2.489,8.978H0V15.2H.012L0,26.4a2.489,2.489,0,0,0,2.489,2.489h22.4V26.4H2.489ZM27.382,6.489H17.425L14.935,4H7.468A2.478,2.478,0,0,0,4.991,6.489L4.978,21.425a2.489,2.489,0,0,0,2.489,2.489H27.382a2.489,2.489,0,0,0,2.489-2.489V8.978A2.489,2.489,0,0,0,27.382,6.489ZM8.712,20.18l5.6-7.468,4.356,5.607,3.112-3.74,4.356,5.6Z" transform="translate(0 -1.511)" fill="#fceef7"/>
</svg>
