<svg xmlns="http://www.w3.org/2000/svg" width="40.546" height="40.547" viewBox="0 0 40.546 40.547">
  <path id="JamIcons_sword" data-name="JamIcons sword" d="M14.253,24.053l3.19,3.19L36.475,8.213l-.532-2.66L33.285,5.02,14.253,24.053ZM7.872,36.816a2.256,2.256,0,1,1-3.19,3.19l-3.194-3.19a2.257,2.257,0,1,1,3.192-3.19l6.38-6.383-3.19-3.19a2.256,2.256,0,1,1,3.19-3.19L31.8.12l7.978,1.6,1.6,7.978L20.635,30.431a2.257,2.257,0,1,1-3.192,3.192l-3.19-3.192-6.38,6.383Z" transform="translate(-0.827 -0.12)" fill="#fceef7"/>
</svg>
